<svg width="47" height="46" viewBox="0 0 47 46" fill="none" xmlns="http://www.w3.org/2000/svg">
<path d="M7.66275 0H38.5664C38.5664 0 42.6651 0.0174616 45.0458 3.82261C45.9172 5.21641 46.3476 6.84991 46.3476 8.50245V37.253C46.3476 38.6532 46.0685 40.0438 45.4792 41.309C44.6856 43.0123 43.1749 44.9125 40.3 45.6936C39.5064 45.9095 38.6849 46 37.8647 46H8.58419C7.18101 46 5.78565 45.7031 4.52282 45.0792C2.86243 44.2585 1.0165 42.7187 0.282189 39.8374C0.0841888 39.0595 0 38.2532 0 37.4451V8.67549C0 7.19122 0.322724 5.71646 0.994673 4.39887C1.97064 2.48755 3.8914 0.398454 7.66275 0Z" fill="white"/>
<path d="M10.435 10.5H16.14C18.1233 10.5 19.57 10.9667 20.48 11.9C21.39 12.81 21.845 14.2217 21.845 16.135V17.64C21.845 20.1833 21.005 21.7933 19.325 22.47V22.54C20.2583 22.82 20.9117 23.3917 21.285 24.255C21.6817 25.1183 21.88 26.2733 21.88 27.72V32.025C21.88 32.725 21.9033 33.2967 21.95 33.74C21.9967 34.16 22.1133 34.58 22.3 35H18.38C18.24 34.6033 18.1467 34.23 18.1 33.88C18.0533 33.53 18.03 32.9 18.03 31.99V27.51C18.03 26.39 17.8433 25.6083 17.47 25.165C17.12 24.7217 16.5017 24.5 15.615 24.5H14.285V35H10.435V10.5ZM15.685 21C16.455 21 17.0267 20.8017 17.4 20.405C17.7967 20.0083 17.995 19.3433 17.995 18.41V16.52C17.995 15.6333 17.8317 14.9917 17.505 14.595C17.2017 14.1983 16.7117 14 16.035 14H14.285V21H15.685ZM29.9762 35.35C28.1329 35.35 26.7212 34.825 25.7412 33.775C24.7845 32.725 24.3062 31.2433 24.3062 29.33V16.17C24.3062 14.2567 24.7845 12.775 25.7412 11.725C26.7212 10.675 28.1329 10.15 29.9762 10.15C31.8195 10.15 33.2195 10.675 34.1762 11.725C35.1562 12.775 35.6462 14.2567 35.6462 16.17V18.76H32.0062V15.925C32.0062 14.4083 31.3645 13.65 30.0812 13.65C28.7979 13.65 28.1562 14.4083 28.1562 15.925V29.61C28.1562 31.1033 28.7979 31.85 30.0812 31.85C31.3645 31.85 32.0062 31.1033 32.0062 29.61V25.865H35.6462V29.33C35.6462 31.2433 35.1562 32.725 34.1762 33.775C33.2195 34.825 31.8195 35.35 29.9762 35.35Z" fill="#4C606B"/>
</svg>
