<svg width="60" height="59" viewBox="0 0 60 59" fill="none" xmlns="http://www.w3.org/2000/svg">
<path d="M9.91994 0H49.9267C49.9267 0 55.2328 0.0222003 58.3147 4.86006C59.4429 6.63213 60 8.70896 60 10.81V47.3634C60 49.1436 59.6387 50.9116 58.8758 52.5202C57.8485 54.6858 55.8928 57.1017 52.171 58.0947C51.1437 58.3692 50.0801 58.4843 49.0184 58.4843H11.1128C9.29629 58.4843 7.48991 58.1068 5.85509 57.3136C3.7056 56.2702 1.31593 54.3124 0.365312 50.6492C0.108988 49.6602 0 48.635 0 47.6076V11.03C0 9.1429 0.417788 7.2679 1.28767 5.59271C2.55113 3.16267 5.03768 0.506593 9.91994 0Z" fill="white"/>
<path d="M19.265 39.9664H9.48835V38.8584C10.3138 38.8584 10.9395 38.7938 11.3613 38.6626C11.7852 38.5314 12.0718 38.2508 12.2252 37.8149C12.3765 37.381 12.4532 36.7068 12.4532 35.7946V22.1085C12.4532 21.501 12.3886 21.0166 12.2575 20.6573C12.1263 20.2981 11.8498 20.0438 11.4259 19.8924C11.0021 19.741 10.3562 19.6643 9.48633 19.6643V18.5563H18.3507C19.9371 18.5563 21.3701 18.7198 22.6517 19.0447C23.9333 19.3696 24.9425 19.9186 25.6832 20.6896C26.4219 21.4606 26.7912 22.5424 26.7912 23.933C26.7912 25.1501 26.5248 26.133 25.992 26.8818C25.4591 27.6305 24.7871 28.2179 23.9717 28.6417C23.1563 29.0656 22.2924 29.3865 21.3802 29.6024V29.7336C21.7495 29.9516 22.1572 30.3209 22.6012 30.8417C23.0453 31.3624 23.6285 32.1293 24.345 33.1385C25.0615 34.1476 26.0182 35.5019 27.213 37.1953C27.7136 37.9118 28.2182 38.3679 28.7288 38.5637C29.2394 38.7594 29.8631 38.8563 30.6018 38.8563V39.9644H24.5731C23.7254 38.6404 23.0251 37.5323 22.4721 36.6402C21.919 35.7502 21.4448 35.0054 21.0552 34.408C20.6637 33.8106 20.3165 33.2778 20.0118 32.8115C19.707 32.3453 19.3921 31.8609 19.0672 31.3604C18.7402 30.8618 18.4415 30.551 18.1711 30.4319C17.8986 30.3129 17.4707 30.2523 16.8834 30.2523H16.0357V35.8248C16.0357 36.6947 16.1124 37.3507 16.2638 37.7967C16.4151 38.2428 16.7199 38.5294 17.176 38.6606C17.6322 38.7917 18.3265 38.8563 19.261 38.8563V39.9644L19.265 39.9664ZM16.0377 28.8879L17.2749 28.9202C18.4476 28.8557 19.4527 28.67 20.2903 28.3672C21.1259 28.0625 21.7778 27.568 22.246 26.8838C22.7122 26.1996 22.9464 25.2712 22.9464 24.0985C22.9464 22.8169 22.5669 21.8017 21.806 21.0509C21.0451 20.3021 19.8281 19.9267 18.1569 19.9267C17.8098 19.9267 17.4566 19.9328 17.0973 19.9428C16.7381 19.955 16.3849 19.9812 16.0377 20.0236V28.8879Z" fill="#4C606B"/>
<path d="M41.5541 40.3257C39.2734 40.3257 37.3721 39.8534 35.8524 38.9088C34.3306 37.9643 33.1902 36.6604 32.4314 34.9974C31.6705 33.3363 31.291 31.4512 31.291 29.3441C31.291 26.9322 31.7532 24.8958 32.6756 23.2347C33.5979 21.5736 34.8755 20.3122 36.5043 19.4544C38.1331 18.5966 40.002 18.1668 42.1091 18.1668C43.2595 18.1668 44.1779 18.2596 44.8621 18.4433C45.5463 18.6289 46.0892 18.8187 46.4908 19.0144C46.8925 19.2102 47.2356 19.3071 47.5181 19.3071C47.8229 19.3071 48.0389 19.192 48.1701 18.964C48.3012 18.7359 48.4405 18.4695 48.5939 18.1647H49.7019V25.7899H48.4627C48.0934 23.705 47.3607 22.161 46.2628 21.1619C45.1648 20.1629 43.7803 19.6623 42.1071 19.6623C39.8688 19.6623 38.1633 20.4716 36.9907 22.0903C35.8181 23.709 35.2307 25.9634 35.2307 28.8516C35.2307 30.9809 35.5355 32.7126 36.143 34.0487C36.7505 35.3849 37.6143 36.3678 38.7345 36.9975C39.8526 37.6272 41.1726 37.942 42.6944 37.942C44.2162 37.942 45.5503 37.6595 46.6382 37.0944C47.724 36.5292 48.7352 35.7482 49.6696 34.7471L50.5173 35.4959C49.8876 36.4081 49.1711 37.2276 48.3658 37.9562C47.5625 38.6848 46.6059 39.26 45.4978 39.6838C44.3898 40.1077 43.0759 40.3196 41.5541 40.3196V40.3257Z" fill="#4C606B"/>
</svg>
